ply
format ascii 1.0
comment VCGLIB generated
element vertex 24
property float x
property float y
property float z
property uchar red
property uchar green
property uchar blue
property uchar alpha
element face 12
property list uchar int vertex_indices
end_header
-0.03259666 -0.01770862 0.0001393053 0 199 3 255 
-0.03259666 0.01929138 0.0001393053 0 199 3 255 
-0.03259666 -0.01770862 -0.001360695 0 199 3 255 
-0.03259666 0.01929138 -0.001360695 0 199 3 255 
0.02940334 -0.01770862 0.0001393053 0 199 3 255 
-0.03259666 -0.01770862 0.0001393053 0 199 3 255 
0.02940334 -0.01770862 -0.001360695 0 199 3 255 
-0.03259666 -0.01770862 -0.001360695 0 199 3 255 
0.02940334 0.01929138 0.0001393053 0 199 3 255 
0.02940334 -0.01770862 0.0001393053 0 199 3 255 
0.02940334 0.01929138 -0.001360695 0 199 3 255 
0.02940334 -0.01770862 -0.001360695 0 199 3 255 
-0.03259666 0.01929138 0.0001393053 0 199 3 255 
0.02940334 0.01929138 0.0001393053 4 200 7 255 
-0.03259666 0.01929138 -0.001360695 0 199 3 255 
0.02940334 0.01929138 -0.001360695 1 199 4 255 
0.02940334 -0.01770862 0.0001393053 0 199 3 255 
0.02940334 0.01929138 0.0001393053 4 200 7 255 
-0.03259666 -0.01770862 0.0001393053 0 199 3 255 
-0.03259666 0.01929138 0.0001393053 0 199 3 255 
0.02940334 0.01929138 -0.001360695 0 199 3 255 
0.02940334 -0.01770862 -0.001360695 0 199 3 255 
-0.03259666 0.01929138 -0.001360695 0 199 3 255 
-0.03259666 -0.01770862 -0.001360695 0 199 3 255 
3 0 1 2 
3 2 1 3 
3 4 5 6 
3 6 5 7 
3 8 9 10 
3 10 9 11 
3 12 13 14 
3 14 13 15 
3 16 17 18 
3 18 17 19 
3 20 21 22 
3 22 21 23 
